<svg id="visual" viewBox="0 0 900 600" width="900" height="600" xmlns="http://www.w3.org/2000/svg" xmlns:xlink="http://www.w3.org/1999/xlink" version="1.1"><rect width="900" height="600" fill="#FFFFFF"></rect><g><g transform="translate(460 37)"><path d="M100.3 -37.7C110.6 -1.1 86 41.7 49.2 68.6C12.4 95.5 -36.5 106.6 -63.6 87C-90.8 67.5 -96 17.3 -81.8 -24.9C-67.5 -67 -33.8 -101.1 5.6 -102.9C45.1 -104.7 90.1 -74.3 100.3 -37.7Z" stroke="#F7760E" fill="none" stroke-width="35"></path></g><g transform="translate(589 320)"><path d="M75.5 -19.8C88.6 15.8 83.6 62 58.7 79.8C33.8 97.6 -10.9 87.1 -45.2 62.2C-79.5 37.3 -103.4 -2 -94.1 -32.4C-84.8 -62.7 -42.4 -84 -5.6 -82.2C31.2 -80.3 62.4 -55.4 75.5 -19.8Z" stroke="#F7760E" fill="none" stroke-width="35"></path></g><g transform="translate(35 415)"><path d="M68.8 -24.1C78.4 7.2 68 43.3 40.8 65.2C13.6 87.1 -30.4 94.8 -62.6 74.2C-94.9 53.6 -115.3 4.7 -102.9 -30.4C-90.5 -65.6 -45.3 -87 -7.8 -84.5C29.6 -81.9 59.2 -55.4 68.8 -24.1Z" stroke="#F7760E" fill="none" stroke-width="35"></path></g><g transform="translate(858 79)"><path d="M71 -22C78.3 -0.4 61.3 30.2 35.7 48.7C10.1 67.2 -24 73.6 -43.8 59.4C-63.7 45.2 -69.2 10.5 -59.6 -14.3C-49.9 -39.1 -24.9 -53.9 3.4 -55C31.8 -56.2 63.6 -43.6 71 -22Z" stroke="#F7760E" fill="none" stroke-width="35"></path></g><g transform="translate(176 120)"><path d="M48 -16.7C56.1 9.5 52.5 38.3 36.8 49.4C21.1 60.5 -6.6 53.9 -24.8 39.4C-43.1 24.9 -51.8 2.6 -46.1 -20.3C-40.4 -43.1 -20.2 -66.5 -0.1 -66.5C19.9 -66.4 39.8 -42.9 48 -16.7Z" stroke="#F7760E" fill="none" stroke-width="35"></path></g><g transform="translate(883 561)"><path d="M92.1 -37.7C101.1 -2.2 77.6 36.2 46.1 57.7C14.6 79.2 -24.9 84 -54.9 64.8C-84.9 45.5 -105.4 2.3 -94.7 -35.6C-83.9 -73.5 -42 -106 -0.2 -106C41.6 -105.9 83.1 -73.2 92.1 -37.7Z" stroke="#F7760E" fill="none" stroke-width="35"></path></g></g></svg>